# xmcd
#
# Track frame offsets:
#	183
#	21243
#	48575
#
# Disc length: 925 seconds
#
# Revision: 0
# Processed by: cddbd v1.5.1PL0 Copyright (c) Steve Scherf et al.
# Submitted via: dBpowerAMP V4.0
#
DISCID=20039b03
DTITLE=Bob Seger - We've Got Tonight
DYEAR=1900
DGENRE=
TTITLE0=We've Got Tonight
TTITLE1=Night Moves
TTITLE2=Nutbush City Limits
EXTD=
EXTT0=
EXTT1=
EXTT2=
PLAYORDER=
